<?xml version="1.0" encoding="utf-8"?>
<!-- Generator: Adobe Illustrator 28.0.0, SVG Export Plug-In . SVG Version: 6.00 Build 0)  -->
<svg version="1.1" id="Capa_1" xmlns="http://www.w3.org/2000/svg" xmlns:xlink="http://www.w3.org/1999/xlink" x="0px" y="0px"
	 viewBox="0 0 434 135" style="enable-background:new 0 0 434 135;" xml:space="preserve">
<style type="text/css">
	.st0{fill:#1F140F;}
	.st1{fill:#3366FF;}
</style>
<g>
	<path class="st0" d="M119.7,81h41.8c0.7,0,1.3-0.2,1.8-0.7c0.5-0.5,0.8-1.1,0.8-1.9c0-0.7-0.3-1.3-0.8-1.8
		c-0.5-0.5-1.1-0.8-1.8-0.8h-39.2V49.7H151c0.8,0,1.4-0.3,1.9-0.8c0.5-0.5,0.7-1.2,0.7-1.9c0-0.8-0.2-1.4-0.7-1.9
		c-0.5-0.5-1.1-0.7-1.9-0.7h-28.8V18.3h39.2c0.7,0,1.3-0.3,1.8-0.8c0.5-0.5,0.8-1.1,0.8-1.8c0-0.8-0.3-1.4-0.8-1.9
		c-0.5-0.5-1.1-0.7-1.8-0.7h-41.8c-0.8,0-1.4,0.2-1.9,0.7c-0.5,0.5-0.7,1.1-0.7,1.9v62.6c0,0.8,0.2,1.4,0.7,1.9
		C118.3,80.7,118.9,81,119.7,81z"/>
	<path class="st0" d="M194.6,38.1c0.9,0.1,1.7,0.1,2.3,0c0.6-0.2,1-0.7,1.2-1.6c0.3-1.3-0.2-2.3-1.4-2.8c-1.2-0.5-2.9-0.8-5.1-0.8
		c-3.2,0-6.2,0.8-8.9,2.4c-2.4,1.5-4.5,3.5-6.1,6v-5.3c0-0.8-0.2-1.4-0.7-1.9c-0.5-0.5-1.1-0.7-1.9-0.7c-0.8,0-1.4,0.2-1.9,0.7
		c-0.5,0.5-0.7,1.1-0.7,1.9v42.3c0,0.8,0.2,1.4,0.7,1.9c0.5,0.5,1.1,0.7,1.9,0.7c0.8,0,1.4-0.2,1.9-0.7c0.5-0.5,0.7-1.1,0.7-1.9V52
		c0-2.7,0.6-5.1,1.9-7.3c1.3-2.1,3-3.8,5.3-5s4.8-1.8,7.7-1.8C192.7,37.9,193.7,38,194.6,38.1z"/>
	<path class="st0" d="M214.9,96.4c3.4,1.8,7.5,2.7,12.3,2.7c4.6,0,8.7-1.1,12.3-3.3c3.6-2.2,6.4-5.1,8.5-8.9c2.1-3.8,3.1-8,3.1-12.7
		v-17c0-4.7-1-8.9-3.1-12.6s-4.9-6.5-8.6-8.6c-3.6-2.1-7.8-3.1-12.6-3.1c-4.6,0-8.7,1-12.4,3.1c-3.7,2.1-6.6,5-8.7,8.6
		c-2.1,3.6-3.2,7.8-3.2,12.6c0,4.7,1,8.9,3.1,12.5c2.1,3.6,5,6.5,8.6,8.6c3.6,2.1,7.8,3.1,12.6,3.1c4.2,0,7.8-0.9,11-2.6
		c3.2-1.8,5.7-4.2,7.5-7.3c0.2-0.3,0.4-0.7,0.5-1v3.8c0,3.8-0.8,7.2-2.4,10.2c-1.6,3-3.8,5.4-6.6,7.2c-2.8,1.7-6,2.6-9.6,2.6
		c-3.8,0-7-0.7-9.8-2.1c-2.8-1.4-5.1-3.2-6.9-5.3c-0.4-0.6-1-1-1.8-1.1s-1.5,0.1-2,0.5c-0.6,0.4-0.9,0.9-0.9,1.6
		c0,0.6,0.2,1.2,0.7,1.8C208.7,92.4,211.5,94.6,214.9,96.4z M243.5,67.3c-1.6,2.9-3.9,5.2-6.7,6.9c-2.9,1.7-6.2,2.5-9.9,2.5
		c-3.7,0-7-0.8-9.9-2.5c-2.9-1.7-5.2-3.9-6.8-6.9c-1.6-2.9-2.4-6.3-2.4-10c0-3.8,0.8-7.2,2.4-10.1c1.6-2.9,3.9-5.2,6.8-6.9
		c2.9-1.7,6.2-2.5,9.9-2.5c3.7,0,7,0.8,9.9,2.5c2.9,1.7,5.1,3.9,6.7,6.9c1.6,2.9,2.4,6.3,2.4,10.1C245.9,61,245.1,64.4,243.5,67.3z"
		/>
	<path class="st0" d="M302.6,69.6c2.1-3.7,3.2-7.8,3.2-12.4c0-4.6-1.1-8.8-3.2-12.5c-2.1-3.7-5-6.6-8.6-8.7
		c-3.6-2.1-7.8-3.2-12.4-3.2c-4.6,0-8.8,1.1-12.5,3.2c-3.7,2.1-6.6,5-8.7,8.7c-2.1,3.7-3.2,7.8-3.2,12.5c0,4.6,1.1,8.7,3.2,12.4
		c2.1,3.7,5,6.6,8.7,8.7c3.7,2.1,7.8,3.2,12.5,3.2c4.6,0,8.8-1.1,12.4-3.2C297.6,76.2,300.5,73.3,302.6,69.6z M291.3,74.1
		c-2.9,1.7-6.1,2.6-9.8,2.6c-3.6,0-6.8-0.9-9.7-2.6c-2.9-1.7-5.2-4-6.9-7c-1.7-2.9-2.5-6.2-2.5-9.9c0-3.7,0.8-7,2.5-9.9
		c1.7-2.9,4-5.2,6.9-7c2.9-1.7,6.1-2.6,9.7-2.6c3.6,0,6.9,0.9,9.8,2.6c2.9,1.7,5.1,4,6.8,7c1.7,2.9,2.5,6.2,2.5,9.9
		c0,3.7-0.8,7-2.5,9.9C296.4,70,294.2,72.4,291.3,74.1z"/>
	<path class="st0" d="M325.7,81c0.8,0,1.4-0.2,1.9-0.7c0.5-0.5,0.7-1.1,0.7-1.9c0-0.8-0.2-1.4-0.6-1.9c-0.4-0.5-0.9-0.7-1.6-0.7H324
		c-1.8,0-3.3-0.9-4.4-2.6c-1.1-1.7-1.7-3.9-1.7-6.6V15.7c0-0.8-0.2-1.4-0.7-1.9c-0.5-0.5-1.1-0.7-1.9-0.7c-0.8,0-1.4,0.2-1.9,0.7
		c-0.5,0.5-0.7,1.1-0.7,1.9v50.9c0,2.8,0.5,5.3,1.4,7.5c1,2.1,2.3,3.8,4,5c1.7,1.2,3.7,1.8,5.9,1.8H325.7z"/>
	<path class="st0" d="M375.7,80.2c0.5-0.5,0.7-1.1,0.7-1.9V36.1c0-0.8-0.2-1.4-0.7-1.9c-0.5-0.5-1.1-0.7-1.9-0.7
		c-0.8,0-1.4,0.2-1.9,0.7c-0.5,0.5-0.7,1.1-0.7,1.9v26.6c0,2.6-0.7,4.9-2.2,7c-1.4,2.1-3.4,3.7-5.9,4.9c-2.5,1.2-5.3,1.8-8.4,1.8
		c-3.2,0-6-0.6-8.6-1.9c-2.5-1.2-4.5-3.1-6-5.6c-1.5-2.5-2.2-5.7-2.2-9.4V36.1c0-0.8-0.2-1.4-0.7-1.9c-0.5-0.5-1.1-0.7-1.9-0.7
		c-0.8,0-1.4,0.2-1.9,0.7c-0.5,0.5-0.7,1.1-0.7,1.9v23.4c0,4.8,1,8.8,2.9,12.1s4.6,5.8,7.9,7.5c3.3,1.7,7,2.6,11.2,2.6
		c3.8,0,7.2-0.8,10.2-2.5c2.5-1.3,4.6-3.1,6.3-5.2v4.5c0,0.8,0.2,1.4,0.7,1.9c0.5,0.5,1.1,0.7,1.9,0.7
		C374.6,81,375.2,80.7,375.7,80.2z"/>
	<path class="st0" d="M422.3,76.7l-15.5-20.6l15.4-18.4c0.5-0.6,0.7-1.2,0.7-1.9c0-0.7-0.2-1.2-0.6-1.7c-0.4-0.5-1-0.7-1.8-0.7
		c-0.5,0-0.9,0.1-1.3,0.4c-0.4,0.3-0.9,0.7-1.3,1.2l-14.5,17.7l-13.9-18.5c-0.5-0.5-1.2-0.8-1.9-0.8c-0.8,0-1.4,0.2-1.8,0.7
		c-0.5,0.5-0.7,1.1-0.8,1.7c-0.1,0.7,0.1,1.3,0.6,1.9l14.3,18.8l-16.2,20.1c-0.5,0.6-0.7,1.2-0.6,1.9c0.1,0.7,0.3,1.2,0.8,1.7
		c0.5,0.5,1.1,0.7,1.8,0.7c0.9,0,1.5-0.3,1.8-0.8L403.1,60l14.6,19.4c0.5,0.6,0.9,1,1.3,1.3s1,0.4,1.7,0.4c0.3,0,0.8-0.2,1.3-0.5
		c0.5-0.3,0.9-0.8,1.1-1.4C423.3,78.4,423,77.6,422.3,76.7z"/>
	<path class="st0" d="M130,122.6h-10.1v-17.4c0-0.3-0.1-0.6-0.3-0.8c-0.4-0.4-1.1-0.4-1.6,0c-0.2,0.2-0.3,0.5-0.3,0.8v18.3
		c0,0.3,0.1,0.6,0.3,0.8c0.2,0.2,0.5,0.3,0.8,0.3H130c0.3,0,0.6-0.1,0.8-0.3c0.2-0.2,0.3-0.5,0.3-0.8s-0.1-0.6-0.3-0.8
		C130.6,122.7,130.4,122.6,130,122.6z"/>
	<path class="st0" d="M146.6,123.6v-12.4c0-0.3-0.1-0.6-0.3-0.8c-0.4-0.4-1.2-0.4-1.6,0c-0.2,0.2-0.3,0.5-0.3,0.8v7.8
		c0,0.7-0.2,1.3-0.6,1.8c-0.4,0.5-0.9,1-1.6,1.3c-1.4,0.7-3.3,0.7-4.6,0c-0.7-0.3-1.2-0.8-1.6-1.5c-0.4-0.7-0.6-1.5-0.6-2.6v-6.8
		c0-0.3-0.1-0.6-0.3-0.8c-0.4-0.4-1.2-0.4-1.6,0c-0.2,0.2-0.3,0.5-0.3,0.8v6.8c0,1.5,0.3,2.7,0.9,3.7c0.6,1,1.4,1.8,2.5,2.3
		c1,0.5,2.2,0.8,3.5,0.8c1.2,0,2.2-0.3,3.2-0.8c0.5-0.3,0.9-0.6,1.3-1v0.4c0,0.3,0.1,0.6,0.3,0.8c0.4,0.4,1.2,0.4,1.6,0
		C146.5,124.2,146.6,123.9,146.6,123.6z"/>
	<path class="st0" d="M153.2,105.2c-0.6-0.5-1.5-0.5-2.1,0c-0.2,0.2-0.5,0.5-0.5,1.2c0,0.4,0.2,0.8,0.5,1.1c0.3,0.3,0.7,0.5,1.1,0.5
		c0.4,0,0.8-0.2,1.1-0.5c0.3-0.3,0.5-0.7,0.5-1.1C153.7,105.7,153.5,105.4,153.2,105.2z"/>
	<path class="st0" d="M151.4,110.4c-0.2,0.1-0.3,0.4-0.3,0.8v13.2c0,0.8-0.2,1.5-0.5,2.1c-0.3,0.6-0.8,1.1-1.4,1.4
		c-0.6,0.3-1.3,0.5-2.1,0.5c-0.3,0-0.6,0.1-0.8,0.3c-0.2,0.2-0.3,0.5-0.3,0.8c0,0.3,0.1,0.6,0.3,0.8c0.2,0.2,0.5,0.3,0.8,0.3
		c1.2,0,2.3-0.3,3.2-0.8c0.9-0.5,1.7-1.3,2.2-2.2c0.5-0.9,0.8-2,0.8-3.2v-13.2c0-0.3-0.1-0.6-0.3-0.8
		C152.6,110,151.8,110,151.4,110.4z"/>
	<path class="st0" d="M168.2,110.9L168.2,110.9c-1.1-0.6-2.4-1-3.8-1c-1.4,0-2.7,0.3-3.8,1c-1.1,0.7-2,1.6-2.7,2.7
		c-0.6,1.1-1,2.4-1,3.8c0,1.4,0.3,2.7,1,3.8c0.6,1.1,1.6,2,2.7,2.7c1.1,0.6,2.4,1,3.8,1c1.4,0,2.7-0.3,3.8-1c1.1-0.6,2-1.5,2.7-2.7
		c0.6-1.1,1-2.4,1-3.8c0-1.4-0.3-2.7-1-3.8C170.3,112.5,169.4,111.6,168.2,110.9z M169.6,117.4c0,1-0.2,1.9-0.7,2.7
		c-0.4,0.8-1.1,1.4-1.9,1.9c-0.8,0.5-1.7,0.7-2.7,0.7c-1,0-1.9-0.2-2.7-0.7c-0.8-0.5-1.4-1.1-1.9-1.9c-0.5-0.8-0.7-1.7-0.7-2.7
		c0-1,0.2-1.9,0.7-2.7c0.5-0.8,1.1-1.4,1.9-1.9c0.8-0.5,1.7-0.7,2.7-0.7c1,0,1.9,0.2,2.7,0.7c0.8,0.5,1.4,1.1,1.9,1.9
		C169.4,115.5,169.6,116.4,169.6,117.4z"/>
	<path class="st0" d="M174.5,122.2c-0.4,0.3-0.5,0.7-0.5,1.2c0,0.3,0.1,0.6,0.2,0.9c0.1,0.2,0.3,0.4,0.4,0.6
		c0.1,0.1,0.2,0.3,0.3,0.5c0.1,0.2,0.1,0.4,0.1,0.6c0,0.2,0,0.4-0.1,0.5c-0.1,0.2-0.3,0.4-0.4,0.6c-0.2,0.2-0.3,0.5-0.3,0.8
		c0,0.3,0.1,0.5,0.2,0.6c0.2,0.1,0.4,0.2,0.6,0.2c0.4,0,0.7-0.2,1.1-0.5c0.3-0.3,0.5-0.6,0.7-1.1c0.2-0.4,0.4-0.9,0.5-1.4
		c0.1-0.5,0.2-1,0.2-1.5c0-0.8-0.2-1.4-0.5-1.8C176.4,121.7,175.3,121.6,174.5,122.2z"/>
	<path class="st0" d="M191.7,108.6c0.7-0.8,1.6-1.4,2.6-1.8c1.8-0.8,4-0.8,5.8-0.3c0.8,0.3,1.5,0.7,2.2,1.3c0.1,0.1,0.2,0.1,0.3,0.2
		c0.1,0.1,0.2,0.1,0.3,0.1c0.4,0.2,0.9,0,1.2-0.3c0.2-0.2,0.3-0.5,0.3-0.8c0-0.3-0.1-0.6-0.4-0.8c-0.9-0.8-2-1.4-3.1-1.8
		c-2.4-0.8-5.2-0.8-7.5,0.3c-1.2,0.6-2.3,1.3-3.3,2.3c-0.9,1-1.7,2.1-2.2,3.4c-0.5,1.3-0.8,2.6-0.8,4c0,1.4,0.3,2.8,0.8,4.1
		c0.5,1.3,1.3,2.4,2.2,3.4c0.9,1,2,1.7,3.3,2.3c1.2,0.6,2.6,0.8,4,0.8c1.2,0,2.3-0.2,3.5-0.5c1.2-0.3,2.2-0.9,3-1.8
		c0.1-0.1,0.2-0.3,0.3-0.4c0-0.1,0-0.2,0-0.4c0-0.3-0.1-0.6-0.3-0.8c-0.2-0.2-0.4-0.3-0.7-0.4c-0.3-0.1-0.6,0-0.8,0.2
		c-0.7,0.6-1.5,1-2.3,1.3c-1.8,0.6-4,0.6-5.8-0.2c-1-0.4-1.8-1-2.6-1.8c-0.7-0.8-1.3-1.7-1.7-2.7c-0.4-1-0.6-2.1-0.6-3.2
		c0-1.1,0.2-2.2,0.6-3.1C190.4,110.3,191,109.4,191.7,108.6z"/>
	<path class="st0" d="M217.9,110.9L217.9,110.9c-1.1-0.6-2.4-1-3.8-1c-1.4,0-2.7,0.3-3.8,1c-1.1,0.7-2,1.6-2.7,2.7
		c-0.6,1.1-1,2.4-1,3.8c0,1.4,0.3,2.7,1,3.8c0.7,1.1,1.6,2,2.7,2.7c1.1,0.6,2.4,1,3.8,1c1.3,0,2.5-0.3,3.5-0.8
		c0.7-0.4,1.2-0.8,1.7-1.4v0.9c0,0.3,0.1,0.6,0.3,0.8c0.4,0.4,1.2,0.4,1.6,0c0.2-0.2,0.3-0.5,0.3-0.8v-6.2c0-1.4-0.3-2.7-1-3.8
		C219.9,112.5,219,111.6,217.9,110.9z M219.3,117.4c0,1-0.2,1.9-0.7,2.7c-0.4,0.8-1.1,1.4-1.9,1.9c-0.8,0.5-1.7,0.7-2.7,0.7
		c-1,0-1.9-0.2-2.7-0.7c-0.8-0.5-1.4-1.1-1.9-1.9c-0.5-0.8-0.7-1.7-0.7-2.7c0-1,0.2-1.9,0.7-2.7c0.5-0.8,1.1-1.4,1.9-1.9
		c0.8-0.5,1.7-0.7,2.7-0.7c1,0,1.9,0.2,2.7,0.7c0.8,0.5,1.4,1.1,1.9,1.9C219.1,115.5,219.3,116.4,219.3,117.4z"/>
	<path class="st0" d="M228.4,122.5h-0.6c-0.4,0-0.7-0.2-1-0.6c-0.3-0.4-0.4-1-0.4-1.7v-14.9c0-0.3-0.1-0.6-0.3-0.8
		c-0.4-0.4-1.2-0.4-1.6,0c-0.2,0.2-0.3,0.5-0.3,0.8v14.9c0,0.9,0.2,1.7,0.5,2.3c0.3,0.7,0.7,1.2,1.3,1.6c0.6,0.4,1.2,0.6,1.9,0.6
		h0.5c0.3,0,0.6-0.1,0.8-0.3c0.2-0.2,0.3-0.5,0.3-0.8c0-0.3-0.1-0.6-0.3-0.8C229,122.6,228.7,122.5,228.4,122.5z"/>
	<path class="st0" d="M232.3,110.4c-0.2,0.1-0.3,0.4-0.3,0.8v12.4c0,0.3,0.1,0.6,0.3,0.8c0.2,0.2,0.5,0.3,0.8,0.3
		c0.3,0,0.6-0.1,0.8-0.3c0.2-0.2,0.3-0.5,0.3-0.8v-12.4c0-0.3-0.1-0.6-0.3-0.8C233.6,110,232.8,110,232.3,110.4z"/>
	<path class="st0" d="M234.2,105.2c-0.6-0.5-1.5-0.5-2.1,0c-0.2,0.2-0.5,0.5-0.5,1.2c0,0.4,0.2,0.8,0.5,1.1c0.3,0.3,0.7,0.5,1.1,0.5
		c0.4,0,0.8-0.2,1.1-0.5c0.3-0.3,0.5-0.7,0.5-1.1C234.7,105.7,234.4,105.4,234.2,105.2z"/>
	<path class="st0" d="M250.9,104.4c-0.2,0.2-0.3,0.5-0.3,0.8v6.8c-0.5-0.5-1.1-1-1.7-1.3c-1-0.6-2.2-0.8-3.5-0.8
		c-1.4,0-2.7,0.3-3.8,1c-1.1,0.7-2,1.5-2.7,2.7c-0.6,1.1-1,2.4-1,3.8s0.3,2.7,1,3.8c0.7,1.1,1.6,2,2.7,2.7c1.1,0.7,2.4,1,3.8,1
		c1.4,0,2.7-0.3,3.8-1c1.1-0.6,2-1.5,2.7-2.6c0.7-1.1,1-2.4,1-3.8v-12.3c0-0.3-0.1-0.6-0.3-0.8C252.1,104,251.3,104,250.9,104.4z
		 M250.5,117.4c0,1-0.2,1.9-0.7,2.7c-0.4,0.8-1.1,1.4-1.9,1.9c-0.8,0.5-1.7,0.7-2.7,0.7c-1,0-1.9-0.2-2.7-0.7
		c-0.8-0.5-1.4-1.1-1.9-1.9c-0.5-0.8-0.7-1.7-0.7-2.7c0-1,0.2-1.9,0.7-2.7c0.5-0.8,1.1-1.4,1.9-1.9c0.8-0.5,1.7-0.7,2.7-0.7
		c1,0,1.9,0.2,2.7,0.7c0.8,0.5,1.4,1.1,1.9,1.9C250.3,115.5,250.5,116.4,250.5,117.4z"/>
	<path class="st0" d="M267.2,110.9c-1.1-0.6-2.4-1-3.8-1s-2.7,0.3-3.8,1c-1.1,0.7-2,1.6-2.7,2.7c-0.6,1.1-1,2.4-1,3.8
		c0,1.4,0.3,2.7,1,3.8c0.7,1.1,1.6,2,2.7,2.7c1.1,0.7,2.4,1,3.8,1c1.3,0,2.5-0.3,3.5-0.8c0.7-0.4,1.2-0.8,1.7-1.4v0.9
		c0,0.3,0.1,0.6,0.3,0.8c0.4,0.4,1.2,0.4,1.6,0c0.2-0.2,0.3-0.5,0.3-0.8v-6.2c0-1.4-0.3-2.7-1-3.8
		C269.2,112.5,268.3,111.6,267.2,110.9z M268.6,117.4c0,1-0.2,1.9-0.7,2.7c-0.4,0.8-1.1,1.4-1.9,1.9c-0.8,0.5-1.7,0.7-2.7,0.7
		c-1,0-1.9-0.2-2.7-0.7c-0.8-0.5-1.4-1.1-1.9-1.9s-0.7-1.7-0.7-2.7c0-1,0.2-1.9,0.7-2.7s1.1-1.4,1.9-1.9c0.8-0.5,1.7-0.7,2.7-0.7
		c1,0,1.9,0.2,2.7,0.7c0.8,0.5,1.4,1.1,1.9,1.9C268.4,115.5,268.6,116.4,268.6,117.4z"/>
	<path class="st0" d="M286.2,104.4c-0.2,0.2-0.3,0.5-0.3,0.8v6.8c-0.5-0.5-1.1-1-1.7-1.3c-1-0.6-2.2-0.8-3.5-0.8
		c-1.4,0-2.7,0.3-3.8,1c-1.1,0.7-2,1.5-2.7,2.7c-0.6,1.1-1,2.4-1,3.8s0.3,2.7,1,3.8c0.7,1.1,1.6,2,2.7,2.7c1.1,0.6,2.4,1,3.8,1
		c1.4,0,2.7-0.3,3.8-1c1.1-0.6,2-1.5,2.7-2.6s1-2.4,1-3.8v-12.3c0-0.3-0.1-0.6-0.3-0.8C287.4,104,286.6,104,286.2,104.4z
		 M285.9,117.4c0,1-0.2,1.9-0.7,2.7c-0.4,0.8-1.1,1.4-1.9,1.9c-0.8,0.5-1.7,0.7-2.7,0.7c-1,0-1.9-0.2-2.7-0.7
		c-0.8-0.5-1.4-1.1-1.9-1.9c-0.5-0.8-0.7-1.7-0.7-2.7c0-1,0.2-1.9,0.7-2.7c0.5-0.8,1.1-1.4,1.9-1.9c0.8-0.5,1.7-0.7,2.7-0.7
		c1,0,1.9,0.2,2.7,0.7c0.8,0.5,1.4,1.1,1.9,1.9S285.9,116.4,285.9,117.4z"/>
	<path class="st0" d="M311,110.1L311,110.1c-0.6-0.2-1.1,0-1.4,0.6l-4.9,10.5l-4.8-10.6c-0.1-0.3-0.4-0.5-0.6-0.6
		c-0.3-0.1-0.5,0-0.8,0.1c-0.4,0.2-0.6,0.4-0.6,0.6c-0.1,0.3,0,0.5,0.1,0.8l5.6,12.2c0,0,0,0,0,0l-2.5,5.3c-0.1,0.3-0.2,0.6-0.1,0.9
		c0.1,0.3,0.3,0.5,0.7,0.6c0.2,0.1,0.3,0.1,0.5,0.1c0.3,0,0.6-0.1,0.9-0.7l8.5-18.5c0.1-0.3,0.2-0.6,0.1-0.9
		C311.5,110.5,311.3,110.3,311,110.1z"/>
	<path class="st0" d="M324.8,108.6c0.7-0.8,1.6-1.4,2.6-1.8c1.8-0.8,4-0.8,5.8-0.3c0.8,0.3,1.5,0.7,2.2,1.3c0.1,0.1,0.2,0.1,0.3,0.2
		c0.1,0.1,0.2,0.1,0.3,0.1c0.4,0.2,0.9,0,1.2-0.3c0.2-0.2,0.3-0.5,0.3-0.8c0-0.3-0.1-0.6-0.4-0.8c-0.9-0.8-2-1.4-3.1-1.8
		c-2.4-0.8-5.2-0.8-7.5,0.3c-1.2,0.6-2.3,1.3-3.3,2.3c-0.9,1-1.7,2.1-2.2,3.4c-0.5,1.3-0.8,2.6-0.8,4c0,1.4,0.3,2.8,0.8,4.1
		c0.5,1.3,1.3,2.4,2.2,3.4c0.9,1,2,1.7,3.3,2.3c1.2,0.6,2.6,0.8,4,0.8c1.2,0,2.4-0.2,3.5-0.5c1.2-0.3,2.2-0.9,3-1.8
		c0.1-0.1,0.2-0.3,0.3-0.4c0-0.1,0-0.2,0-0.4c0-0.3-0.1-0.6-0.3-0.8c-0.2-0.2-0.4-0.3-0.7-0.4c-0.3-0.1-0.6,0-0.8,0.2
		c-0.7,0.6-1.5,1-2.3,1.3c-1.8,0.6-4,0.6-5.8-0.2c-1-0.4-1.8-1-2.6-1.8c-0.7-0.8-1.3-1.7-1.7-2.7c-0.4-1-0.6-2.1-0.6-3.2
		c0-1.1,0.2-2.2,0.6-3.1C323.5,110.3,324.1,109.4,324.8,108.6z"/>
	<path class="st0" d="M351,110.9c-1.1-0.6-2.4-1-3.8-1s-2.7,0.3-3.8,1c-1.1,0.7-2,1.6-2.7,2.7c-0.6,1.1-1,2.4-1,3.8
		c0,1.4,0.3,2.7,1,3.8c0.7,1.1,1.6,2,2.7,2.7c1.1,0.7,2.4,1,3.8,1s2.7-0.3,3.8-1c1.1-0.6,2-1.5,2.7-2.7c0.6-1.1,1-2.4,1-3.8
		c0-1.4-0.3-2.7-1-3.8C353,112.5,352.1,111.6,351,110.9z M352.4,117.4c0,1-0.2,1.9-0.7,2.7c-0.4,0.8-1.1,1.4-1.9,1.9
		c-0.8,0.5-1.7,0.7-2.7,0.7c-1,0-1.9-0.2-2.7-0.7c-0.8-0.5-1.4-1.1-1.9-1.9s-0.7-1.7-0.7-2.7c0-1,0.2-1.9,0.7-2.7s1.1-1.4,1.9-1.9
		c0.8-0.5,1.7-0.7,2.7-0.7c1,0,1.9,0.2,2.7,0.7c0.8,0.5,1.4,1.1,1.9,1.9C352.2,115.5,352.4,116.4,352.4,117.4z"/>
	<path class="st0" d="M367.9,110.7c-1-0.5-2.2-0.8-3.5-0.8c-1.1,0-2.2,0.3-3.2,0.8c-0.5,0.3-0.9,0.6-1.3,1v-0.4
		c0-0.3-0.1-0.6-0.3-0.8c-0.4-0.4-1.2-0.4-1.6,0c-0.2,0.2-0.3,0.5-0.3,0.8v12.4c0,0.3,0.1,0.6,0.3,0.8c0.4,0.4,1.2,0.4,1.6,0
		c0.2-0.2,0.3-0.5,0.3-0.8v-7.8c0-0.7,0.2-1.3,0.6-1.8c0.4-0.6,0.9-1,1.6-1.3c1.4-0.7,3.3-0.6,4.7,0c0.7,0.3,1.2,0.8,1.6,1.5
		c0.4,0.7,0.6,1.5,0.6,2.6v6.8c0,0.3,0.1,0.6,0.3,0.8c0.2,0.2,0.5,0.3,0.8,0.3c0.3,0,0.6-0.1,0.8-0.3c0.2-0.2,0.3-0.5,0.3-0.8v-6.8
		c0-1.5-0.3-2.7-0.9-3.7C369.8,112,369,111.2,367.9,110.7z"/>
	<path class="st0" d="M378.6,108.2c0.2-0.6,0.5-1.1,1-1.5c0.4-0.3,1.1-0.5,1.8-0.5c0.3,0,0.6-0.1,0.8-0.3c0.2-0.2,0.3-0.5,0.3-0.8
		c0-0.3-0.1-0.6-0.3-0.8c-0.2-0.2-0.5-0.3-0.8-0.3c-1.2,0-2.3,0.3-3.1,0.8c-0.8,0.5-1.4,1.3-1.8,2.3c-0.4,0.9-0.6,2-0.6,3.2v0.2
		h-1.6c-0.3,0-0.6,0.1-0.8,0.3c-0.2,0.2-0.3,0.5-0.3,0.8c0,0.3,0.1,0.6,0.3,0.8c0.2,0.2,0.5,0.3,0.8,0.3h1.6v10.9
		c0,0.3,0.1,0.6,0.3,0.8c0.2,0.2,0.5,0.3,0.8,0.3c0.3,0,0.6-0.1,0.8-0.3c0.2-0.2,0.3-0.5,0.3-0.8v-10.9h3c0.3,0,0.6-0.1,0.8-0.3
		c0.2-0.2,0.3-0.5,0.3-0.8c0-0.3-0.1-0.6-0.3-0.8c-0.2-0.2-0.5-0.3-0.8-0.3h-3v-0.2C378.3,109.6,378.4,108.9,378.6,108.2z"/>
	<path class="st0" d="M394.7,110.9c-1.1-0.6-2.4-1-3.8-1s-2.7,0.3-3.8,1c-1.1,0.7-2,1.6-2.7,2.7c-0.7,1.1-1,2.4-1,3.8
		c0,1.4,0.3,2.7,1,3.8c0.7,1.1,1.6,2,2.7,2.7c1.1,0.7,2.4,1,3.8,1s2.7-0.3,3.8-1c1.1-0.6,2-1.5,2.7-2.7c0.6-1.1,1-2.4,1-3.8
		c0-1.4-0.3-2.7-1-3.8C396.7,112.5,395.8,111.6,394.7,110.9z M390.9,122.7c-1,0-1.9-0.2-2.7-0.7c-0.8-0.5-1.4-1.1-1.9-1.9
		s-0.7-1.7-0.7-2.7c0-1,0.2-1.9,0.7-2.7s1.1-1.4,1.9-1.9c0.8-0.5,1.7-0.7,2.7-0.7c1,0,1.9,0.2,2.7,0.7c0.8,0.5,1.4,1.1,1.9,1.9
		c0.4,0.8,0.7,1.7,0.7,2.7c0,1-0.2,1.9-0.7,2.7c-0.4,0.8-1.1,1.4-1.9,1.9C392.8,122.5,391.9,122.7,390.9,122.7z"/>
	<path class="st0" d="M409.3,110.2c-0.4-0.2-0.9-0.3-1.6-0.3c-1,0-2,0.3-2.8,0.8c-0.4,0.3-0.9,0.6-1.2,1v-0.5c0-0.3-0.1-0.6-0.3-0.8
		c-0.4-0.4-1.2-0.4-1.6,0c-0.2,0.2-0.3,0.5-0.3,0.8v12.4c0,0.3,0.1,0.6,0.3,0.8c0.2,0.2,0.5,0.3,0.8,0.3c0.3,0,0.6-0.1,0.8-0.3
		c0.2-0.2,0.3-0.5,0.3-0.8v-7.7c0-0.7,0.2-1.4,0.5-1.9c0.3-0.6,0.8-1,1.4-1.3c0.6-0.3,1.3-0.5,2.1-0.5c0.3,0,0.6,0,0.8,0.1
		c0.3,0.1,0.6,0,0.8,0c0.2-0.1,0.5-0.2,0.6-0.7C410.1,110.9,409.9,110.4,409.3,110.2z"/>
	<path class="st0" d="M419.2,122.5h-0.6c-0.9,0-1.6-0.3-2.1-0.8c-0.5-0.6-0.8-1.3-0.8-2.1v-6.8h3c0.3,0,0.6-0.1,0.8-0.3
		c0.2-0.2,0.3-0.5,0.3-0.8c0-0.3-0.1-0.6-0.3-0.8c-0.2-0.2-0.5-0.3-0.8-0.3h-3v-3.8c0-0.3-0.1-0.6-0.3-0.8c-0.4-0.4-1.2-0.4-1.6,0
		c-0.2,0.2-0.3,0.5-0.3,0.8v3.8h-1.6c-0.3,0-0.6,0.1-0.8,0.3c-0.2,0.2-0.3,0.5-0.3,0.8c0,0.3,0.1,0.6,0.3,0.8
		c0.2,0.2,0.5,0.3,0.8,0.3h1.6v6.8c0,1,0.2,1.9,0.7,2.7c0.4,0.8,1.1,1.4,1.8,1.9c0.8,0.4,1.7,0.7,2.7,0.7h0.6c0.3,0,0.6-0.1,0.8-0.3
		c0.2-0.2,0.3-0.5,0.3-0.8c0-0.3-0.1-0.6-0.3-0.8C419.8,122.6,419.5,122.5,419.2,122.5z"/>
</g>
<path class="st0" d="M102.9,72.3c-1.6-4.7-5.1-7.7-9.4-7.9c-5.8-0.2-8.7,0.9-11.7,2.2c-1.7,0.7-3.4,1.4-5.8,1.9
	c-2.8,0.6-5.7,1.1-6.8,0.2c-0.6-0.5-1.4-2.1-1.4-6.6c0-4.8,4.4-13.8,8.3-21.8c4.3-8.7,7.9-16.3,7.7-20.8c-0.1-2-0.5-4.8-2.7-6
	c-2.8-1.6-6.3,0.3-11.6,3.1c-1.8,1-3.8,2-6.1,3.1c-21.1,10.1-31.6,2.5-38.5-2.6c-3.8-2.7-7.3-5.3-10.9-3C9.9,16.9,9.8,24.4,9.7,34
	C9.5,69.8,16,92.3,29.8,102.7c7.4,5.5,15.1,8,22.3,8.7c0,0,0,0.1,0,0.1v11.4H36.9c-0.9,0-1.6,0.7-1.6,1.6v0.7c0,0.9,0.7,1.6,1.6,1.6
	h35.6c0.9,0,1.6-0.7,1.6-1.6v-0.7c0-0.9-0.7-1.6-1.6-1.6H56v-11.3c0.3,0,0.7,0,1,0c12.9,0,22.9-4.9,23.6-5.2c1-0.5,1.4-1.7,0.9-2.7
	c-0.5-1-1.7-1.4-2.7-0.9c-0.3,0.1-25.6,12.4-46.5-3.3c-7.6-5.7-12.9-15.7-15.8-30.3c0.6,0.9,1.2,1.8,1.8,2.7
	c1.3,1.9,2.9,2.9,4.6,3.1c3.2,0.4,6-2.1,8.5-4.3c0.9-0.8,1.8-1.6,2.5-2.1c2.8-1.9,2.8-1.9,4.6,0.4c2.2,2.8,11.7,13.4,21.2,20.5
	c9.4,7.1,30,7,38.6-0.1C103.9,84.9,104.6,77.4,102.9,72.3z M95.8,86.3c-6.6,5.4-25.2,6.3-33.7-0.1c-8.7-6.5-18-16.7-20.5-19.8
	c-1.8-2.3-3.3-3.4-5-3.4c-1.4,0-3,0.7-5,2.1c-1,0.7-1.9,1.5-2.9,2.4c-1.8,1.6-3.9,3.5-5.4,3.3c-0.6-0.1-1.2-0.5-1.8-1.4
	c-3.7-5.3-6.5-11.9-6.9-12.8c-0.7-6.8-1-14.4-0.9-22.7c0.1-7,0.1-14.9,2.4-16.3c1.2-0.8,2.8,0.2,6.4,2.8c7.2,5.3,19.3,14,42.6,2.9
	c2.3-1.1,4.4-2.2,6.2-3.2c2.9-1.5,6.9-3.7,7.8-3.2c0,0,0.5,0.4,0.7,2.8c0.2,3.4-3.6,11.2-7.3,18.8c-4.3,8.8-8.7,17.9-8.7,23.6
	c0,5.1,0.9,8.1,2.9,9.7c2.6,2.1,6.2,1.4,10.1,0.6c2.8-0.6,4.8-1.4,6.6-2.1c2.8-1.1,5-2.1,10-1.9c3.7,0.1,5.2,3.6,5.7,5.1
	C100.3,77.4,99.9,83,95.8,86.3z"/>
<path class="st1" d="M13.8,34c-0.1,8.3,0.2,15.9,0.9,22.7c0.3,0.8,3.1,7.5,6.9,12.8c0.6,0.9,1.2,1.4,1.8,1.4
	c1.4,0.2,3.6-1.8,5.4-3.3c1-0.9,2-1.7,2.9-2.4c2-1.4,3.6-2.1,5-2.1c1.8,0,3.2,1.1,5,3.4c0.5,0.7,1.4,1.7,2.5,2.9
	c-0.9-2.8-3.3-10.7-2.8-15.1c0.6-5.4,2-9,15.9-11.6c8-1.5,14.1-6.1,18-9.7c2.6-5.5,4.7-10.5,4.5-13.1c-0.1-2.4-0.7-2.7-0.7-2.8
	c-0.9-0.5-4.8,1.6-7.8,3.2c-1.8,1-3.9,2.1-6.2,3.2c-23.3,11.1-35.4,2.3-42.6-2.9c-3.6-2.6-5.2-3.6-6.4-2.8
	C13.9,19.1,13.8,27,13.8,34z"/>
</svg>
