<?xml version="1.0" encoding="utf-8"?>
<!-- Generator: Adobe Illustrator 28.0.0, SVG Export Plug-In . SVG Version: 6.00 Build 0)  -->
<svg version="1.1" id="Capa_1" xmlns="http://www.w3.org/2000/svg" xmlns:xlink="http://www.w3.org/1999/xlink" x="0px" y="0px"
	 viewBox="0 0 434 135" style="enable-background:new 0 0 434 135;" xml:space="preserve">
<style type="text/css">
	.st0{fill:#1F140F;}
	.st1{fill:#3366FF;}
</style>
<g>
	<path d="M164.1,82.4c0-0.7-0.3-1.3-0.8-1.8c-0.5-0.5-1.1-0.8-1.8-0.8h-39.2V53.7H151c0.8,0,1.4-0.3,1.9-0.8
		c0.5-0.5,0.7-1.2,0.7-1.9c0-0.8-0.2-1.4-0.7-1.9c-0.5-0.5-1.1-0.7-1.9-0.7h-28.8V22.3h39.2c0.7,0,1.3-0.3,1.8-0.8
		c0.5-0.5,0.8-1.1,0.8-1.8c0-0.8-0.3-1.4-0.8-1.9c-0.5-0.5-1.1-0.7-1.8-0.7h-41.8c-0.8,0-1.4,0.2-1.9,0.7c-0.5,0.5-0.7,1.1-0.7,1.9
		v62.6c0,0.8,0.2,1.4,0.7,1.9c0.5,0.5,1.1,0.7,1.9,0.7h41.8c0.7,0,1.3-0.2,1.8-0.7C163.8,83.7,164.1,83.1,164.1,82.4z"/>
	<path d="M176,84.2c0.5-0.5,0.7-1.1,0.7-1.9V56c0-2.7,0.6-5.1,1.9-7.3c1.3-2.1,3-3.8,5.3-5s4.8-1.8,7.7-1.8c1.1,0,2.1,0.1,3,0.2
		c0.9,0.1,1.7,0.1,2.3,0c0.6-0.2,1-0.7,1.2-1.6c0.3-1.3-0.2-2.3-1.4-2.8c-1.2-0.5-2.9-0.8-5.1-0.8c-3.2,0-6.2,0.8-8.9,2.4
		c-2.4,1.5-4.5,3.5-6.1,6v-5.3c0-0.8-0.2-1.4-0.7-1.9c-0.5-0.5-1.1-0.7-1.9-0.7c-0.8,0-1.4,0.2-1.9,0.7c-0.5,0.5-0.7,1.1-0.7,1.9
		v42.3c0,0.8,0.2,1.4,0.7,1.9c0.5,0.5,1.1,0.7,1.9,0.7C174.9,85,175.5,84.7,176,84.2z"/>
	<path d="M248,91c2.1-3.8,3.1-8,3.1-12.7v-17c0-4.7-1-8.9-3.1-12.6s-4.9-6.5-8.6-8.6c-3.6-2.1-7.8-3.1-12.6-3.1
		c-4.6,0-8.7,1-12.4,3.1c-3.7,2.1-6.6,5-8.7,8.6c-2.1,3.6-3.2,7.8-3.2,12.6c0,4.7,1,8.9,3.1,12.5c2.1,3.6,5,6.5,8.6,8.6
		c3.6,2.1,7.8,3.1,12.6,3.1c4.2,0,7.8-0.9,11-2.6c3.2-1.8,5.7-4.2,7.5-7.3c0.2-0.3,0.4-0.7,0.5-1v3.8c0,3.8-0.8,7.2-2.4,10.2
		c-1.6,3-3.8,5.4-6.6,7.2c-2.8,1.7-6,2.6-9.6,2.6c-3.8,0-7-0.7-9.8-2.1c-2.8-1.4-5.1-3.2-6.9-5.3c-0.4-0.6-1-1-1.8-1.1
		s-1.5,0.1-2,0.5c-0.6,0.4-0.9,0.9-0.9,1.6c0,0.6,0.2,1.2,0.7,1.8c2.2,2.8,5,5.1,8.4,6.9c3.4,1.8,7.5,2.7,12.3,2.7
		c4.6,0,8.7-1.1,12.3-3.3C243.1,97.7,245.9,94.7,248,91z M243.5,71.3c-1.6,2.9-3.9,5.2-6.7,6.9c-2.9,1.7-6.2,2.5-9.9,2.5
		c-3.7,0-7-0.8-9.9-2.5c-2.9-1.7-5.2-3.9-6.8-6.9c-1.6-2.9-2.4-6.3-2.4-10c0-3.8,0.8-7.2,2.4-10.1c1.6-2.9,3.9-5.2,6.8-6.9
		c2.9-1.7,6.2-2.5,9.9-2.5c3.7,0,7,0.8,9.9,2.5c2.9,1.7,5.1,3.9,6.7,6.9c1.6,2.9,2.4,6.3,2.4,10.1C245.9,65,245.1,68.4,243.5,71.3z"
		/>
	<path d="M293.9,40.1c-3.6-2.1-7.8-3.2-12.4-3.2c-4.6,0-8.8,1.1-12.5,3.2c-3.7,2.1-6.6,5-8.7,8.7c-2.1,3.7-3.2,7.8-3.2,12.5
		c0,4.6,1.1,8.7,3.2,12.4c2.1,3.7,5,6.6,8.7,8.7c3.7,2.1,7.8,3.2,12.5,3.2c4.6,0,8.8-1.1,12.4-3.2c3.6-2.1,6.5-5,8.6-8.7
		c2.1-3.7,3.2-7.8,3.2-12.4c0-4.6-1.1-8.8-3.2-12.5C300.5,45.1,297.6,42.2,293.9,40.1z M298.1,71.1c-1.7,2.9-3.9,5.2-6.8,7
		c-2.9,1.7-6.1,2.6-9.8,2.6c-3.6,0-6.8-0.9-9.7-2.6c-2.9-1.7-5.2-4-6.9-7c-1.7-2.9-2.5-6.2-2.5-9.9c0-3.7,0.8-7,2.5-9.9
		c1.7-2.9,4-5.2,6.9-7c2.9-1.7,6.1-2.6,9.7-2.6c3.6,0,6.9,0.9,9.8,2.6c2.9,1.7,5.1,4,6.8,7c1.7,2.9,2.5,6.2,2.5,9.9
		C300.5,64.9,299.7,68.2,298.1,71.1z"/>
	<path d="M328.4,82.4c0-0.8-0.2-1.4-0.6-1.9c-0.4-0.5-0.9-0.7-1.6-0.7H324c-1.8,0-3.3-0.9-4.4-2.6c-1.1-1.7-1.7-3.9-1.7-6.6V19.7
		c0-0.8-0.2-1.4-0.7-1.9c-0.5-0.5-1.1-0.7-1.9-0.7c-0.8,0-1.4,0.2-1.9,0.7c-0.5,0.5-0.7,1.1-0.7,1.9v50.9c0,2.8,0.5,5.3,1.4,7.5
		c1,2.1,2.3,3.8,4,5c1.7,1.2,3.7,1.8,5.9,1.8h1.7c0.8,0,1.4-0.2,1.9-0.7C328.1,83.7,328.4,83.1,328.4,82.4z"/>
	<path d="M373.8,37.4c-0.8,0-1.4,0.2-1.9,0.7c-0.5,0.5-0.7,1.1-0.7,1.9v26.6c0,2.6-0.7,4.9-2.2,7c-1.4,2.1-3.4,3.7-5.9,4.9
		c-2.5,1.2-5.3,1.8-8.4,1.8c-3.2,0-6-0.6-8.6-1.9c-2.5-1.2-4.5-3.1-6-5.6c-1.5-2.5-2.2-5.7-2.2-9.4V40.1c0-0.8-0.2-1.4-0.7-1.9
		c-0.5-0.5-1.1-0.7-1.9-0.7c-0.8,0-1.4,0.2-1.9,0.7c-0.5,0.5-0.7,1.1-0.7,1.9v23.4c0,4.8,1,8.8,2.9,12.1s4.6,5.8,7.9,7.5
		c3.3,1.7,7,2.6,11.2,2.6c3.8,0,7.2-0.8,10.2-2.5c2.5-1.3,4.6-3.1,6.3-5.2v4.5c0,0.8,0.2,1.4,0.7,1.9c0.5,0.5,1.1,0.7,1.9,0.7
		c0.8,0,1.4-0.2,1.9-0.7c0.5-0.5,0.7-1.1,0.7-1.9V40.1c0-0.8-0.2-1.4-0.7-1.9C375.2,37.7,374.6,37.4,373.8,37.4z"/>
	<path d="M422.3,80.7l-15.5-20.6l15.4-18.4c0.5-0.6,0.7-1.2,0.7-1.9c0-0.7-0.2-1.2-0.6-1.7c-0.4-0.5-1-0.7-1.8-0.7
		c-0.5,0-0.9,0.1-1.3,0.4c-0.4,0.3-0.9,0.7-1.3,1.2l-14.5,17.7l-13.9-18.5c-0.5-0.5-1.2-0.8-1.9-0.8c-0.8,0-1.4,0.2-1.8,0.7
		c-0.5,0.5-0.7,1.1-0.8,1.7c-0.1,0.7,0.1,1.3,0.6,1.9l14.3,18.8l-16.2,20.1c-0.5,0.6-0.7,1.2-0.6,1.9c0.1,0.7,0.3,1.2,0.8,1.7
		c0.5,0.5,1.1,0.7,1.8,0.7c0.9,0,1.5-0.3,1.8-0.8L403.1,64l14.6,19.4c0.5,0.6,0.9,1,1.3,1.3s1,0.4,1.7,0.4c0.3,0,0.8-0.2,1.3-0.5
		c0.5-0.3,0.9-0.8,1.1-1.4C423.3,82.4,423,81.6,422.3,80.7z"/>
	<path d="M128.4,124.6h-8.2v-13.9c0-0.2-0.1-0.3-0.2-0.4c-0.1-0.1-0.3-0.2-0.4-0.2c-0.2,0-0.3,0.1-0.4,0.2c-0.1,0.1-0.2,0.3-0.2,0.4
		v14.3c0,0.2,0.1,0.3,0.2,0.4c0.1,0.1,0.3,0.2,0.4,0.2h8.8c0.2,0,0.3,0,0.4-0.1c0.1-0.1,0.2-0.2,0.2-0.4s-0.1-0.3-0.2-0.4
		C128.8,124.7,128.6,124.6,128.4,124.6z"/>
	<path d="M141.1,115.4c0-0.2-0.1-0.3-0.2-0.4c-0.1-0.1-0.3-0.2-0.4-0.2c-0.2,0-0.3,0.1-0.4,0.2c-0.1,0.1-0.2,0.3-0.2,0.4v6.1
		c0,0.6-0.2,1.1-0.5,1.6c-0.3,0.5-0.8,0.8-1.4,1.1s-1.2,0.4-1.9,0.4c-0.7,0-1.4-0.1-2-0.4c-0.6-0.3-1-0.7-1.4-1.3
		c-0.3-0.6-0.5-1.3-0.5-2.2v-5.4c0-0.2-0.1-0.3-0.2-0.4c-0.1-0.1-0.3-0.2-0.4-0.2c-0.2,0-0.3,0.1-0.4,0.2c-0.1,0.1-0.2,0.3-0.2,0.4
		v5.4c0,1.1,0.2,2,0.7,2.8c0.4,0.8,1,1.3,1.8,1.7c0.8,0.4,1.6,0.6,2.6,0.6c0.9,0,1.6-0.2,2.3-0.6c0.6-0.3,1-0.7,1.4-1.3v1.1
		c0,0.2,0.1,0.3,0.2,0.4c0.1,0.1,0.3,0.2,0.4,0.2c0.2,0,0.3-0.1,0.4-0.2c0.1-0.1,0.2-0.3,0.2-0.4V115.4z"/>
	<path d="M145.8,110.7c-0.2,0-0.5,0.1-0.6,0.2s-0.3,0.4-0.3,0.7c0,0.3,0.1,0.5,0.3,0.7c0.2,0.2,0.4,0.3,0.6,0.3
		c0.3,0,0.5-0.1,0.7-0.3c0.2-0.2,0.3-0.4,0.3-0.7c0-0.3-0.1-0.5-0.3-0.7S146,110.7,145.8,110.7z"/>
	<path d="M145.8,114.8c-0.2,0-0.3,0.1-0.4,0.2s-0.2,0.3-0.2,0.4v10.3c0,0.7-0.1,1.3-0.4,1.8c-0.3,0.5-0.7,0.9-1.2,1.2
		c-0.5,0.3-1.1,0.4-1.8,0.4c-0.2,0-0.3,0.1-0.4,0.2c-0.1,0.1-0.2,0.3-0.2,0.4c0,0.2,0.1,0.3,0.2,0.4c0.1,0.1,0.3,0.2,0.4,0.2
		c0.9,0,1.7-0.2,2.4-0.6c0.7-0.4,1.2-0.9,1.6-1.6c0.4-0.7,0.6-1.5,0.6-2.4v-10.3c0-0.2-0.1-0.3-0.2-0.4S145.9,114.8,145.8,114.8z"/>
	<path d="M158.2,115.4c-0.8-0.5-1.8-0.7-2.8-0.7c-1.1,0-2,0.2-2.9,0.7c-0.8,0.5-1.5,1.1-2,2c-0.5,0.8-0.7,1.8-0.7,2.9
		c0,1,0.2,2,0.7,2.8c0.5,0.8,1.1,1.5,2,2c0.8,0.5,1.8,0.7,2.9,0.7c1.1,0,2-0.2,2.8-0.7c0.8-0.5,1.5-1.1,2-2c0.5-0.8,0.7-1.8,0.7-2.8
		c0-1.1-0.2-2-0.7-2.9C159.7,116.6,159,115.9,158.2,115.4z M159.1,122.5c-0.4,0.7-0.9,1.2-1.6,1.6c-0.7,0.4-1.4,0.6-2.2,0.6
		c-0.8,0-1.6-0.2-2.2-0.6c-0.7-0.4-1.2-0.9-1.6-1.6s-0.6-1.4-0.6-2.3c0-0.8,0.2-1.6,0.6-2.3s0.9-1.2,1.6-1.6
		c0.7-0.4,1.4-0.6,2.2-0.6c0.8,0,1.6,0.2,2.2,0.6c0.7,0.4,1.2,0.9,1.6,1.6s0.6,1.4,0.6,2.3C159.7,121.1,159.5,121.8,159.1,122.5z"/>
	<path d="M164.1,124c-0.3,0-0.5,0.1-0.7,0.2c-0.2,0.2-0.3,0.4-0.3,0.7c0,0.2,0,0.4,0.1,0.5c0.1,0.1,0.2,0.3,0.3,0.4
		c0.1,0.1,0.2,0.3,0.3,0.4c0.1,0.2,0.1,0.4,0.1,0.6c0,0.2-0.1,0.4-0.2,0.6c-0.1,0.2-0.2,0.3-0.3,0.5c-0.1,0.1-0.2,0.3-0.2,0.4
		c0,0.1,0,0.2,0.1,0.2s0.2,0.1,0.3,0.1c0.2,0,0.4-0.1,0.6-0.3c0.2-0.2,0.4-0.4,0.5-0.8c0.1-0.3,0.3-0.7,0.3-1
		c0.1-0.4,0.1-0.7,0.1-1.1c0-0.5-0.1-0.9-0.4-1.2S164.4,124,164.1,124z"/>
	<path d="M176.5,113.2c0.6-0.6,1.3-1.1,2.1-1.5c0.8-0.4,1.6-0.5,2.5-0.5c0.8,0,1.5,0.1,2.2,0.3s1.3,0.6,1.8,1
		c0.1,0.1,0.1,0.1,0.2,0.1c0.1,0,0.1,0.1,0.2,0.1c0.1,0,0.1,0,0.2,0c0.2,0,0.3-0.1,0.4-0.2c0.1-0.1,0.2-0.3,0.2-0.4
		s-0.1-0.3-0.2-0.4c-0.7-0.6-1.5-1-2.3-1.3c-0.8-0.3-1.7-0.4-2.6-0.4c-1.1,0-2.1,0.2-3,0.6s-1.8,1-2.5,1.7c-0.7,0.7-1.3,1.6-1.7,2.5
		s-0.6,2-0.6,3.1c0,1.1,0.2,2.1,0.6,3.1s1,1.8,1.7,2.5s1.5,1.3,2.5,1.7s1.9,0.6,3,0.6c0.9,0,1.8-0.1,2.6-0.4
		c0.9-0.2,1.6-0.7,2.3-1.3c0.1-0.1,0.1-0.1,0.1-0.2c0-0.1,0-0.1,0-0.2c0-0.2-0.1-0.3-0.2-0.4c-0.1-0.1-0.2-0.2-0.4-0.2
		s-0.3,0-0.4,0.1c-0.6,0.5-1.2,0.9-1.9,1.1c-0.7,0.2-1.4,0.4-2.2,0.4c-0.9,0-1.8-0.2-2.5-0.5s-1.5-0.8-2.1-1.5
		c-0.6-0.6-1.1-1.3-1.4-2.2c-0.3-0.8-0.5-1.7-0.5-2.6c0-0.9,0.2-1.8,0.5-2.6C175.4,114.5,175.9,113.8,176.5,113.2z"/>
	<path d="M197,115.4c-0.8-0.5-1.8-0.7-2.8-0.7c-1.1,0-2,0.2-2.9,0.7c-0.8,0.5-1.5,1.1-2,2c-0.5,0.8-0.7,1.8-0.7,2.9
		c0,1,0.2,2,0.7,2.8c0.5,0.8,1.1,1.5,2,2c0.8,0.5,1.8,0.7,2.9,0.7c1,0,1.8-0.2,2.6-0.6c0.7-0.4,1.3-1,1.8-1.7v1.6
		c0,0.2,0.1,0.3,0.2,0.4c0.1,0.1,0.3,0.2,0.4,0.2c0.2,0,0.3-0.1,0.4-0.2c0.1-0.1,0.2-0.3,0.2-0.4v-4.8c0-1.1-0.2-2-0.7-2.9
		C198.5,116.6,197.8,115.9,197,115.4z M196.4,124.1c-0.7,0.4-1.4,0.6-2.2,0.6c-0.8,0-1.6-0.2-2.2-0.6c-0.7-0.4-1.2-0.9-1.6-1.6
		s-0.6-1.4-0.6-2.3c0-0.8,0.2-1.6,0.6-2.3s0.9-1.2,1.6-1.6c0.7-0.4,1.4-0.6,2.2-0.6c0.8,0,1.6,0.2,2.2,0.6c0.7,0.4,1.2,0.9,1.6,1.6
		s0.6,1.4,0.6,2.3c0,0.8-0.2,1.6-0.6,2.3S197.1,123.7,196.4,124.1z"/>
	<path d="M205.4,124.5h-0.5c-0.4,0-0.7-0.2-1-0.6c-0.3-0.4-0.4-0.9-0.4-1.5v-11.7c0-0.2-0.1-0.3-0.2-0.4c-0.1-0.1-0.3-0.2-0.4-0.2
		c-0.2,0-0.3,0.1-0.4,0.2s-0.2,0.3-0.2,0.4v11.7c0,0.6,0.1,1.2,0.3,1.7c0.2,0.5,0.5,0.9,0.9,1.2c0.4,0.3,0.8,0.4,1.3,0.4h0.4
		c0.2,0,0.3-0.1,0.4-0.2c0.1-0.1,0.2-0.3,0.2-0.4c0-0.2,0-0.3-0.1-0.4C205.7,124.5,205.5,124.5,205.4,124.5z"/>
	<path d="M209.1,114.8c-0.2,0-0.3,0.1-0.4,0.2s-0.2,0.3-0.2,0.4v9.7c0,0.2,0.1,0.3,0.2,0.4c0.1,0.1,0.3,0.2,0.4,0.2
		c0.2,0,0.3-0.1,0.4-0.2c0.1-0.1,0.2-0.3,0.2-0.4v-9.7c0-0.2-0.1-0.3-0.2-0.4C209.4,114.9,209.3,114.8,209.1,114.8z"/>
	<path d="M209.1,110.7c-0.2,0-0.5,0.1-0.6,0.2c-0.2,0.2-0.3,0.4-0.3,0.7c0,0.3,0.1,0.5,0.3,0.7c0.2,0.2,0.4,0.3,0.6,0.3
		c0.3,0,0.5-0.1,0.7-0.3c0.2-0.2,0.3-0.4,0.3-0.7c0-0.3-0.1-0.5-0.3-0.7S209.3,110.7,209.1,110.7z"/>
	<path d="M223.6,110.1c-0.2,0-0.3,0.1-0.4,0.2c-0.1,0.1-0.2,0.3-0.2,0.4v6.2c-0.4-0.7-1-1.2-1.8-1.7c-0.8-0.4-1.6-0.6-2.6-0.6
		c-1.1,0-2,0.2-2.9,0.7c-0.8,0.5-1.5,1.1-2,2c-0.5,0.8-0.7,1.8-0.7,2.8s0.2,2,0.7,2.9c0.5,0.8,1.1,1.5,2,2c0.8,0.5,1.8,0.7,2.9,0.7
		c1,0,2-0.2,2.8-0.7s1.5-1.1,2-1.9s0.7-1.8,0.8-2.8v-9.6c0-0.2-0.1-0.3-0.2-0.4C223.9,110.2,223.8,110.1,223.6,110.1z M222.4,122.5
		c-0.4,0.7-0.9,1.2-1.6,1.6c-0.7,0.4-1.4,0.6-2.2,0.6c-0.8,0-1.6-0.2-2.2-0.6c-0.7-0.4-1.2-0.9-1.6-1.6s-0.6-1.4-0.6-2.3
		s0.2-1.6,0.6-2.3s0.9-1.2,1.6-1.6c0.7-0.4,1.4-0.6,2.2-0.6c0.8,0,1.6,0.2,2.2,0.6c0.7,0.4,1.2,0.9,1.6,1.6s0.6,1.4,0.6,2.3
		S222.8,121.8,222.4,122.5z"/>
	<path d="M235.6,115.4c-0.8-0.5-1.8-0.7-2.8-0.7c-1.1,0-2,0.2-2.9,0.7c-0.8,0.5-1.5,1.1-2,2c-0.5,0.8-0.7,1.8-0.7,2.9
		c0,1,0.2,2,0.7,2.8c0.5,0.8,1.1,1.5,2,2c0.8,0.5,1.8,0.7,2.9,0.7c1,0,1.8-0.2,2.6-0.6c0.7-0.4,1.3-1,1.8-1.7v1.6
		c0,0.2,0.1,0.3,0.2,0.4c0.1,0.1,0.3,0.2,0.4,0.2c0.2,0,0.3-0.1,0.4-0.2c0.1-0.1,0.2-0.3,0.2-0.4v-4.8c0-1.1-0.2-2-0.7-2.9
		C237.1,116.6,236.4,115.9,235.6,115.4z M235,124.1c-0.7,0.4-1.4,0.6-2.2,0.6c-0.8,0-1.6-0.2-2.2-0.6c-0.7-0.4-1.2-0.9-1.6-1.6
		s-0.6-1.4-0.6-2.3c0-0.8,0.2-1.6,0.6-2.3s0.9-1.2,1.6-1.6c0.7-0.4,1.4-0.6,2.2-0.6c0.8,0,1.6,0.2,2.2,0.6c0.7,0.4,1.2,0.9,1.6,1.6
		s0.6,1.4,0.6,2.3c0,0.8-0.2,1.6-0.6,2.3S235.6,123.7,235,124.1z"/>
	<path d="M251.2,110.1c-0.2,0-0.3,0.1-0.4,0.2c-0.1,0.1-0.2,0.3-0.2,0.4v6.2c-0.4-0.7-1-1.2-1.8-1.7c-0.8-0.4-1.6-0.6-2.6-0.6
		c-1.1,0-2,0.2-2.9,0.7c-0.8,0.5-1.5,1.1-2,2c-0.5,0.8-0.7,1.8-0.7,2.8s0.2,2,0.7,2.9c0.5,0.8,1.1,1.5,2,2c0.8,0.5,1.8,0.7,2.9,0.7
		c1,0,2-0.2,2.8-0.7s1.5-1.1,2-1.9c0.5-0.8,0.7-1.8,0.8-2.8v-9.6c0-0.2-0.1-0.3-0.2-0.4S251.4,110.1,251.2,110.1z M250,122.5
		c-0.4,0.7-0.9,1.2-1.6,1.6c-0.7,0.4-1.4,0.6-2.2,0.6c-0.8,0-1.6-0.2-2.2-0.6s-1.2-0.9-1.6-1.6s-0.6-1.4-0.6-2.3s0.2-1.6,0.6-2.3
		s0.9-1.2,1.6-1.6s1.4-0.6,2.2-0.6c0.8,0,1.6,0.2,2.2,0.6c0.7,0.4,1.2,0.9,1.6,1.6s0.6,1.4,0.6,2.3S250.4,121.8,250,122.5z"/>
	<path d="M269.9,114.8c-0.3-0.1-0.6,0-0.7,0.3l-4.1,8.8l-4-8.8c-0.1-0.2-0.2-0.3-0.3-0.3c-0.1,0-0.3,0-0.5,0.1
		c-0.2,0.1-0.3,0.2-0.3,0.3s0,0.3,0.1,0.5l4.4,9.6c0,0.1,0.1,0.1,0.1,0.1l-2,4.3c-0.2,0.3-0.1,0.6,0.3,0.7c0.1,0,0.2,0.1,0.3,0.1
		c0.2,0,0.3-0.1,0.5-0.4l6.7-14.5C270.3,115.2,270.2,115,269.9,114.8z"/>
	<path d="M280.6,113.2c0.6-0.6,1.3-1.1,2.1-1.5c0.8-0.4,1.6-0.5,2.5-0.5c0.8,0,1.5,0.1,2.2,0.3s1.3,0.6,1.8,1
		c0.1,0.1,0.1,0.1,0.2,0.1c0.1,0,0.1,0.1,0.2,0.1c0.1,0,0.1,0,0.2,0c0.2,0,0.3-0.1,0.4-0.2c0.1-0.1,0.2-0.3,0.2-0.4
		s-0.1-0.3-0.2-0.4c-0.7-0.6-1.5-1-2.3-1.3c-0.8-0.3-1.7-0.4-2.6-0.4c-1.1,0-2.1,0.2-3,0.6c-0.9,0.4-1.8,1-2.5,1.7
		c-0.7,0.7-1.3,1.6-1.7,2.5c-0.4,1-0.6,2-0.6,3.1c0,1.1,0.2,2.1,0.6,3.1s1,1.8,1.7,2.5c0.7,0.7,1.5,1.3,2.5,1.7
		c0.9,0.4,1.9,0.6,3,0.6c0.9,0,1.8-0.1,2.6-0.4c0.9-0.2,1.6-0.7,2.3-1.3c0.1-0.1,0.1-0.1,0.1-0.2c0-0.1,0-0.1,0-0.2
		c0-0.2-0.1-0.3-0.2-0.4c-0.1-0.1-0.2-0.2-0.4-0.2c-0.1,0-0.3,0-0.4,0.1c-0.6,0.5-1.2,0.9-1.9,1.1c-0.7,0.2-1.4,0.4-2.2,0.4
		c-0.9,0-1.8-0.2-2.5-0.5s-1.5-0.8-2.1-1.5c-0.6-0.6-1.1-1.3-1.4-2.2c-0.3-0.8-0.5-1.7-0.5-2.6c0-0.9,0.2-1.8,0.5-2.6
		C279.5,114.5,280,113.8,280.6,113.2z"/>
	<path d="M301.1,115.4c-0.8-0.5-1.8-0.7-2.8-0.7c-1.1,0-2,0.2-2.9,0.7c-0.8,0.5-1.5,1.1-2,2c-0.5,0.8-0.7,1.8-0.7,2.9
		c0,1,0.2,2,0.7,2.8c0.5,0.8,1.1,1.5,2,2c0.8,0.5,1.8,0.7,2.9,0.7c1.1,0,2-0.2,2.8-0.7c0.8-0.5,1.5-1.1,2-2c0.5-0.8,0.7-1.8,0.7-2.8
		c0-1.1-0.2-2-0.7-2.9C302.6,116.6,302,115.9,301.1,115.4z M302.1,122.5c-0.4,0.7-0.9,1.2-1.6,1.6s-1.4,0.6-2.2,0.6
		c-0.8,0-1.6-0.2-2.2-0.6c-0.7-0.4-1.2-0.9-1.6-1.6s-0.6-1.4-0.6-2.3c0-0.8,0.2-1.6,0.6-2.3s0.9-1.2,1.6-1.6
		c0.7-0.4,1.4-0.6,2.2-0.6c0.8,0,1.6,0.2,2.2,0.6s1.2,0.9,1.6,1.6s0.6,1.4,0.6,2.3C302.7,121.1,302.5,121.8,302.1,122.5z"/>
	<path d="M314.4,115.3c-0.8-0.4-1.6-0.6-2.6-0.6c-0.8,0-1.6,0.2-2.3,0.6c-0.6,0.3-1.1,0.7-1.5,1.3v-1.1c0-0.2-0.1-0.3-0.2-0.4
		s-0.3-0.2-0.4-0.2c-0.2,0-0.3,0.1-0.4,0.2c-0.1,0.1-0.2,0.3-0.2,0.4v9.7c0,0.2,0.1,0.3,0.2,0.4c0.1,0.1,0.3,0.2,0.4,0.2
		c0.2,0,0.3-0.1,0.4-0.2c0.1-0.1,0.2-0.3,0.2-0.4V119c0-0.6,0.2-1.1,0.5-1.6c0.3-0.5,0.8-0.9,1.4-1.1c0.6-0.3,1.2-0.4,1.9-0.4
		c0.7,0,1.4,0.1,2,0.4s1,0.7,1.4,1.3c0.3,0.6,0.5,1.3,0.5,2.2v5.4c0,0.2,0.1,0.3,0.2,0.4c0.1,0.1,0.3,0.2,0.4,0.2
		c0.2,0,0.3-0.1,0.4-0.2c0.1-0.1,0.2-0.3,0.2-0.4v-5.4c0-1.1-0.2-2-0.7-2.8C315.7,116.2,315.1,115.6,314.4,115.3z"/>
	<path d="M325.1,110.1c-0.9,0-1.7,0.2-2.3,0.6c-0.6,0.4-1,0.9-1.3,1.6c-0.3,0.7-0.4,1.5-0.4,2.4v0.4h-1.6c-0.2,0-0.3,0-0.4,0.1
		s-0.1,0.2-0.1,0.4s0,0.3,0.1,0.4s0.2,0.1,0.4,0.1h1.6v8.8c0,0.2,0.1,0.3,0.2,0.4c0.1,0.1,0.3,0.2,0.4,0.2c0.2,0,0.3-0.1,0.4-0.2
		c0.1-0.1,0.2-0.3,0.2-0.4v-8.8h2.6c0.2,0,0.3,0,0.4-0.1c0.1-0.1,0.1-0.2,0.1-0.4s0-0.3-0.1-0.4c-0.1-0.1-0.2-0.1-0.4-0.1h-2.6v-0.4
		c0-0.7,0.1-1.3,0.3-1.8c0.2-0.5,0.5-1,0.9-1.3c0.4-0.3,0.9-0.5,1.6-0.5c0.2,0,0.3,0,0.4-0.1c0.1-0.1,0.2-0.2,0.2-0.4
		s-0.1-0.3-0.2-0.4S325.3,110.1,325.1,110.1z"/>
	<path d="M335.3,115.4c-0.8-0.5-1.8-0.7-2.8-0.7c-1.1,0-2,0.2-2.9,0.7c-0.8,0.5-1.5,1.1-2,2c-0.5,0.8-0.7,1.8-0.7,2.9
		c0,1,0.2,2,0.7,2.8c0.5,0.8,1.1,1.5,2,2c0.8,0.5,1.8,0.7,2.9,0.7c1.1,0,2-0.2,2.8-0.7c0.8-0.5,1.5-1.1,2-2c0.5-0.8,0.7-1.8,0.7-2.8
		c0-1.1-0.2-2-0.7-2.9C336.8,116.6,336.1,115.9,335.3,115.4z M336.2,122.5c-0.4,0.7-0.9,1.2-1.6,1.6s-1.4,0.6-2.2,0.6
		c-0.8,0-1.6-0.2-2.2-0.6c-0.7-0.4-1.2-0.9-1.6-1.6s-0.6-1.4-0.6-2.3c0-0.8,0.2-1.6,0.6-2.3s0.9-1.2,1.6-1.6
		c0.7-0.4,1.4-0.6,2.2-0.6c0.8,0,1.6,0.2,2.2,0.6s1.2,0.9,1.6,1.6s0.6,1.4,0.6,2.3C336.8,121.1,336.6,121.8,336.2,122.5z"/>
	<path d="M346.8,114.9c-0.3-0.1-0.7-0.2-1.2-0.2c-0.7,0-1.4,0.2-2,0.6c-0.6,0.3-1,0.8-1.4,1.4v-1.3c0-0.2-0.1-0.3-0.2-0.4
		s-0.3-0.2-0.4-0.2c-0.2,0-0.3,0.1-0.4,0.2c-0.1,0.1-0.2,0.3-0.2,0.4v9.7c0,0.2,0.1,0.3,0.2,0.4c0.1,0.1,0.3,0.2,0.4,0.2
		c0.2,0,0.3-0.1,0.4-0.2c0.1-0.1,0.2-0.3,0.2-0.4v-6c0-0.6,0.1-1.2,0.4-1.7s0.7-0.9,1.2-1.1c0.5-0.3,1.1-0.4,1.8-0.4
		c0.3,0,0.5,0,0.7,0c0.2,0,0.4,0,0.5,0c0.1,0,0.2-0.2,0.3-0.4C347.2,115.2,347.1,115,346.8,114.9z"/>
	<path d="M354.6,124.5h-0.4c-0.8,0-1.4-0.2-1.9-0.7c-0.5-0.5-0.7-1.1-0.7-1.9v-5.6h2.6c0.2,0,0.3,0,0.4-0.1s0.1-0.2,0.1-0.4
		s0-0.3-0.1-0.4s-0.2-0.1-0.4-0.1h-2.6V112c0-0.2-0.1-0.3-0.2-0.4c-0.1-0.1-0.3-0.2-0.4-0.2c-0.2,0-0.3,0.1-0.4,0.2
		c-0.1,0.1-0.2,0.3-0.2,0.4v3.2h-1.6c-0.2,0-0.3,0-0.4,0.1c-0.1,0.1-0.1,0.2-0.1,0.4s0,0.3,0.1,0.4c0.1,0.1,0.2,0.1,0.4,0.1h1.6v5.6
		c0,0.7,0.2,1.4,0.5,2c0.3,0.6,0.8,1,1.3,1.4s1.2,0.5,2,0.5h0.5c0.2,0,0.3-0.1,0.4-0.2c0.1-0.1,0.2-0.3,0.2-0.4
		c0-0.2-0.1-0.3-0.2-0.4C355,124.5,354.8,124.5,354.6,124.5z"/>
</g>
<path class="st0" d="M101.9,72.9c-1.6-4.7-5-7.6-9.3-7.8c-5.8-0.2-8.6,0.9-11.5,2.1c-1.7,0.7-3.4,1.4-5.8,1.9
	c-2.8,0.6-5.6,1.1-6.7,0.2c-0.6-0.5-1.4-2.1-1.4-6.5c0-4.7,4.4-13.7,8.2-21.6c4.2-8.6,7.9-16.1,7.6-20.6c-0.1-2-0.5-4.8-2.7-6
	c-2.8-1.5-6.2,0.3-11.5,3.1c-1.8,0.9-3.8,2-6,3.1c-20.9,10-31.2,2.4-38.1-2.5c-3.7-2.7-7.2-5.3-10.8-2.9C9.9,18,9.8,25.5,9.7,34.9
	c-0.3,35.5,6.2,57.8,19.9,68c7.3,5.5,15,7.9,22.1,8.6c0,0,0,0.1,0,0.1v11.3H36.6c-0.9,0-1.6,0.7-1.6,1.6v0.7c0,0.9,0.7,1.6,1.6,1.6
	h35.2c0.9,0,1.6-0.7,1.6-1.6v-0.7c0-0.9-0.7-1.6-1.6-1.6H55.5v-11.2c0.3,0,0.7,0,1,0c12.8,0,22.7-4.8,23.4-5.2
	c1-0.5,1.4-1.7,0.9-2.7c-0.5-1-1.7-1.4-2.7-0.9c-0.3,0.1-25.3,12.3-46.1-3.2c-7.6-5.7-12.7-15.6-15.6-30c0.6,0.9,1.1,1.8,1.8,2.7
	c1.3,1.8,2.8,2.9,4.6,3.1c3.2,0.4,6-2.1,8.4-4.3c0.9-0.8,1.7-1.5,2.5-2.1c2.7-1.9,2.7-1.9,4.5,0.4c2.2,2.8,11.6,13.3,21,20.3
	c9.3,7,29.7,7,38.2-0.1C102.9,85.3,103.6,77.9,101.9,72.9z M94.9,86.7c-6.6,5.4-24.9,6.3-33.3-0.1C53,80.2,43.8,70.2,41.3,67.1
	c-1.8-2.3-3.2-3.4-5-3.4c-1.4,0-2.9,0.7-5,2.1c-1,0.7-1.9,1.5-2.9,2.4c-1.7,1.5-3.9,3.5-5.3,3.3c-0.6-0.1-1.2-0.5-1.8-1.4
	c-3.7-5.2-6.5-11.8-6.8-12.7c-0.7-6.7-1-14.2-0.9-22.5c0.1-6.9,0.1-14.7,2.3-16.1c1.2-0.8,2.7,0.2,6.3,2.8
	c7.1,5.2,19.1,13.9,42.1,2.9c2.3-1.1,4.3-2.2,6.2-3.1c2.9-1.5,6.8-3.6,7.7-3.2c0,0,0.5,0.4,0.7,2.7c0.2,3.4-3.6,11.1-7.2,18.6
	c-4.2,8.7-8.6,17.7-8.6,23.3c0,5,0.9,8,2.8,9.6c2.5,2.1,6.2,1.4,10,0.6c2.8-0.6,4.8-1.4,6.5-2.1c2.8-1.1,5-2,9.9-1.8
	c3.6,0.1,5.2,3.6,5.7,5C99.4,77.9,98.9,83.4,94.9,86.7z"/>
<path fill="#3366FF" class="st1" d="M13.7,34.9c-0.1,8.2,0.2,15.7,0.9,22.5c0.3,0.8,3.1,7.4,6.8,12.7c0.6,0.9,1.2,1.3,1.8,1.4
	c1.4,0.2,3.6-1.8,5.3-3.3c1-0.9,1.9-1.7,2.9-2.4c2-1.4,3.6-2.1,5-2.1c1.7,0,3.2,1.1,5,3.4c0.5,0.7,1.4,1.7,2.5,2.9
	c-0.9-2.8-3.3-10.6-2.8-15c0.6-5.4,2-8.9,15.7-11.4c7.9-1.5,14-6,17.8-9.6c2.6-5.5,4.6-10.4,4.5-13c-0.1-2.4-0.7-2.7-0.7-2.7
	c-0.8-0.5-4.8,1.6-7.7,3.2c-1.8,1-3.9,2.1-6.2,3.1c-23,11-35,2.3-42.1-2.9c-3.6-2.6-5.1-3.6-6.3-2.8C13.8,20.2,13.8,28,13.7,34.9z"
	/>
</svg>
